ffmpeg started on 2025-05-28 at 21:35:51
Report written to "D:\Convert\FFMetrics\reports\psnr_report-6.txt"
Log level: 32
Command line:
ffmpeg -hide_banner -nostdin -i "G:\\\xc0\xed\xe8\xec\xe5\\\xce\xed\xe3\xee\xe8\xed\xe3\xe8\\!_36_\xce\xf1\xe5\xed\xfc_2024\\JamClub\\\xcb\xfe\xe1\xee\xe2\xfc \xcc\xf3\xf0\xe0\xe8\\JamClub_Murai_no_Koi_08_1080p_HEVC.mkv" -i "G:\\\xc0\xed\xe8\xec\xe5\\\xce\xed\xe3\xee\xe8\xed\xe3\xe8\\!_36_\xce\xf1\xe5\xed\xfc_2024\\JamClub\\\xcb\xfe\xe1\xee\xe2\xfc \xcc\xf3\xf0\xe0\xe8\\JamClub_Murai_no_Koi_08_1080p.mp4" -lavfi "[0:v]settb=AVTB,setpts=PTS-STARTPTS,format=pix_fmts=yuv420p10,fps=24000/1001,scale=1920:1080:flags=bicubic[main];[1:v]settb=AVTB,setpts=PTS-STARTPTS,format=pix_fmts=yuv420p,fps=24000/1001,scale=1920:1080:flags=bicubic[ref];[main][ref]psnr=eof_action=endall:stats_file='D\\:/Convert/FFMetrics/logs/psnr_logfile-6.txt'" -f null -
Input #0, matroska,webm, from 'G:\Аниме\Онгоинги\!_36_Осень_2024\JamClub\Любовь Мураи\JamClub_Murai_no_Koi_08_1080p_HEVC.mkv':
  Metadata:
    COMPATIBLE_BRANDS: isomiso2avc1mp41
    MAJOR_BRAND     : isom
    MINOR_VERSION   : 512
    ENCODER         : Lavf61.7.100
  Duration: 00:24:04.25, start: -0.021000, bitrate: 1402 kb/s
  Stream #0:0: Video: hevc (Main 10), yuv420p10le(tv, bt709, progressive), 1920x1080 [SAR 1:1 DAR 16:9], 23.98 fps, 23.98 tbr, 1k tbn (default)
      Metadata:
        HANDLER_NAME    : VideoHandler
        VENDOR_ID       : [0][0][0][0]
        ENCODER         : Lavc61.19.100 libx265
        BPS             : 1204877
        DURATION        : 00:24:04.150708333
        NUMBER_OF_FRAMES: 34625
        NUMBER_OF_BYTES : 217503005
        _STATISTICS_WRITING_APP: mkvpropedit v66.0.0 ('Josie') 64-bit
        _STATISTICS_WRITING_DATE_UTC: 2025-05-28 13:11:29
        _STATISTICS_TAGS: BPS DURATION NUMBER_OF_FRAMES NUMBER_OF_BYTES
  Stream #0:1(eng): Audio: aac (LC), 48000 Hz, stereo, fltp (default)
      Metadata:
        HANDLER_NAME    : SoundHandler
        VENDOR_ID       : [0][0][0][0]
        ENCODER         : Lavc61.19.100 aac
        BPS             : 193752
        DURATION        : 00:24:04.227000000
        NUMBER_OF_FRAMES: 67699
        NUMBER_OF_BYTES : 34977829
        _STATISTICS_WRITING_APP: mkvpropedit v66.0.0 ('Josie') 64-bit
        _STATISTICS_WRITING_DATE_UTC: 2025-05-28 13:11:29
        _STATISTICS_TAGS: BPS DURATION NUMBER_OF_FRAMES NUMBER_OF_BYTES
Input #1, mov,mp4,m4a,3gp,3g2,mj2, from 'G:\Аниме\Онгоинги\!_36_Осень_2024\JamClub\Любовь Мураи\JamClub_Murai_no_Koi_08_1080p.mp4':
  Metadata:
    major_brand     : isom
    minor_version   : 512
    compatible_brands: isomiso2avc1mp41
    encoder         : Lavf60.16.100
  Duration: 00:24:04.23, start: 0.000000, bitrate: 4439 kb/s
  Stream #1:0[0x1](und): Video: h264 (High) (avc1 / 0x31637661), yuv420p(tv, bt709, progressive), 1920x1080 [SAR 1:1 DAR 16:9], 4241 kb/s, 23.98 fps, 23.98 tbr, 90k tbn (default)
      Metadata:
        handler_name    : VideoHandler
        vendor_id       : [0][0][0][0]
  Stream #1:1[0x2](eng): Audio: aac (LC) (mp4a / 0x6134706D), 48000 Hz, stereo, fltp, 191 kb/s (default)
      Metadata:
        handler_name    : SoundHandler
        vendor_id       : [0][0][0][0]
Stream mapping:
  Stream #0:0 (hevc) -> settb:default
  Stream #1:0 (h264) -> settb:default
  psnr:default -> Stream #0:0 (wrapped_avframe)
  Stream #0:1 -> #0:1 (aac (native) -> pcm_s16le (native))
Output #0, null, to 'pipe:':
  Metadata:
    COMPATIBLE_BRANDS: isomiso2avc1mp41
    MAJOR_BRAND     : isom
    MINOR_VERSION   : 512
    encoder         : Lavf61.7.100
  Stream #0:0: Video: wrapped_avframe, yuv420p10le(tv, bt709, progressive), 1920x1080 [SAR 1:1 DAR 16:9], q=2-31, 200 kb/s, 23.98 fps, 23.98 tbn
      Metadata:
        encoder         : Lavc61.19.100 wrapped_avframe
  Stream #0:1(eng): Audio: pcm_s16le, 48000 Hz, stereo, s16, 1536 kb/s (default)
      Metadata:
        HANDLER_NAME    : SoundHandler
        VENDOR_ID       : [0][0][0][0]
        _STATISTICS_TAGS: BPS DURATION NUMBER_OF_FRAMES NUMBER_OF_BYTES
        BPS             : 193752
        DURATION        : 00:24:04.227000000
        NUMBER_OF_FRAMES: 67699
        NUMBER_OF_BYTES : 34977829
        _STATISTICS_WRITING_APP: mkvpropedit v66.0.0 ('Josie') 64-bit
        _STATISTICS_WRITING_DATE_UTC: 2025-05-28 13:11:29
        encoder         : Lavc61.19.100 pcm_s16le
frame=  119 fps=0.0 q=-0.0 size=N/A time=00:00:04.96 bitrate=N/A speed=9.66x    frame=  282 fps=276 q=-0.0 size=N/A time=00:00:11.76 bitrate=N/A speed=11.5x    frame=  489 fps=316 q=-0.0 size=N/A time=00:00:20.39 bitrate=N/A speed=13.2x    frame=  685 fps=332 q=-0.0 size=N/A time=00:00:28.57 bitrate=N/A speed=13.9x    frame=  848 fps=330 q=-0.0 size=N/A time=00:00:35.36 bitrate=N/A speed=13.8x    frame=  994 fps=322 q=-0.0 size=N/A time=00:00:41.45 bitrate=N/A speed=13.4x    frame= 1153 fps=321 q=-0.0 size=N/A time=00:00:48.08 bitrate=N/A speed=13.4x    frame= 1378 fps=334 q=-0.0 size=N/A time=00:00:57.47 bitrate=N/A speed=13.9x    frame= 1511 fps=326 q=-0.0 size=N/A time=00:01:03.02 bitrate=N/A speed=13.6x    frame= 1736 fps=337 q=-0.0 size=N/A time=00:01:12.40 bitrate=N/A speed=14.1x    frame= 1905 fps=336 q=-0.0 size=N/A time=00:01:19.45 bitrate=N/A speed=  14x    frame= 2051 fps=331 q=-0.0 size=N/A time=00:01:25.54 bitrate=N/A speed=13.8x    frame= 2210 fps=329 q=-0.0 size=N/A time=00:01:32.17 bitrate=N/A speed=13.7x    frame= 2415 fps=334 q=-0.0 size=N/A time=00:01:40.72 bitrate=N/A speed=13.9x    frame= 2619 fps=338 q=-0.0 size=N/A time=00:01:49.23 bitrate=N/A speed=14.1x    frame= 2869 fps=347 q=-0.0 size=N/A time=00:01:59.66 bitrate=N/A speed=14.5x    frame= 3109 fps=354 q=-0.0 size=N/A time=00:02:09.67 bitrate=N/A speed=14.8x    frame= 3343 fps=360 q=-0.0 size=N/A time=00:02:19.43 bitrate=N/A speed=  15x    frame= 3600 fps=367 q=-0.0 size=N/A time=00:02:30.15 bitrate=N/A speed=15.3x    frame= 3873 fps=375 q=-0.0 size=N/A time=00:02:41.53 bitrate=N/A speed=15.7x    frame= 4143 fps=382 q=-0.0 size=N/A time=00:02:52.79 bitrate=N/A speed=  16x    frame= 4388 fps=387 q=-0.0 size=N/A time=00:03:03.01 bitrate=N/A speed=16.1x    frame= 4634 fps=391 q=-0.0 size=N/A time=00:03:13.27 bitrate=N/A speed=16.3x    frame= 4887 fps=395 q=-0.0 size=N/A time=00:03:23.82 bitrate=N/A speed=16.5x    frame= 5138 fps=398 q=-0.0 size=N/A time=00:03:34.29 bitrate=N/A speed=16.6x    frame= 5386 fps=402 q=-0.0 size=N/A time=00:03:44.64 bitrate=N/A speed=16.7x    frame= 5673 fps=407 q=-0.0 size=N/A time=00:03:56.61 bitrate=N/A speed=  17x    frame= 5938 fps=411 q=-0.0 size=N/A time=00:04:07.66 bitrate=N/A speed=17.1x    frame= 6182 fps=413 q=-0.0 size=N/A time=00:04:17.84 bitrate=N/A speed=17.2x    frame= 6381 fps=412 q=-0.0 size=N/A time=00:04:26.14 bitrate=N/A speed=17.2x    frame= 6649 fps=416 q=-0.0 size=N/A time=00:04:37.31 bitrate=N/A speed=17.3x    frame= 6894 fps=418 q=-0.0 size=N/A time=00:04:47.53 bitrate=N/A speed=17.4x    frame= 7158 fps=420 q=-0.0 size=N/A time=00:04:58.54 bitrate=N/A speed=17.5x    frame= 7403 fps=422 q=-0.0 size=N/A time=00:05:08.76 bitrate=N/A speed=17.6x    frame= 7662 fps=424 q=-0.0 size=N/A time=00:05:19.56 bitrate=N/A speed=17.7x    frame= 7948 fps=427 q=-0.0 size=N/A time=00:05:31.49 bitrate=N/A speed=17.8x    frame= 8207 fps=429 q=-0.0 size=N/A time=00:05:42.30 bitrate=N/A speed=17.9x    frame= 8486 fps=432 q=-0.0 size=N/A time=00:05:53.93 bitrate=N/A speed=  18x    frame= 8756 fps=435 q=-0.0 size=N/A time=00:06:05.19 bitrate=N/A speed=18.1x    frame= 9017 fps=436 q=-0.0 size=N/A time=00:06:16.08 bitrate=N/A speed=18.2x    frame= 9239 fps=436 q=-0.0 size=N/A time=00:06:25.34 bitrate=N/A speed=18.2x    frame= 9479 fps=437 q=-0.0 size=N/A time=00:06:35.35 bitrate=N/A speed=18.2x    frame= 9740 fps=439 q=-0.0 size=N/A time=00:06:46.23 bitrate=N/A speed=18.3x    frame= 9984 fps=439 q=-0.0 size=N/A time=00:06:56.41 bitrate=N/A speed=18.3x    frame=10228 fps=440 q=-0.0 size=N/A time=00:07:06.59 bitrate=N/A speed=18.4x    frame=10462 fps=440 q=-0.0 size=N/A time=00:07:16.35 bitrate=N/A speed=18.4x    frame=10722 fps=442 q=-0.0 size=N/A time=00:07:27.19 bitrate=N/A speed=18.4x    frame=10991 fps=443 q=-0.0 size=N/A time=00:07:38.41 bitrate=N/A speed=18.5x    frame=11228 fps=444 q=-0.0 size=N/A time=00:07:48.30 bitrate=N/A speed=18.5x    frame=11498 fps=445 q=-0.0 size=N/A time=00:07:59.56 bitrate=N/A speed=18.6x    frame=11757 fps=446 q=-0.0 size=N/A time=00:08:10.36 bitrate=N/A speed=18.6x    frame=12007 fps=447 q=-0.0 size=N/A time=00:08:20.79 bitrate=N/A speed=18.6x    frame=12252 fps=448 q=-0.0 size=N/A time=00:08:31.01 bitrate=N/A speed=18.7x    frame=12487 fps=448 q=-0.0 size=N/A time=00:08:40.81 bitrate=N/A speed=18.7x    frame=12730 fps=448 q=-0.0 size=N/A time=00:08:50.94 bitrate=N/A speed=18.7x    frame=12945 fps=448 q=-0.0 size=N/A time=00:08:59.91 bitrate=N/A speed=18.7x    frame=13180 fps=448 q=-0.0 size=N/A time=00:09:09.71 bitrate=N/A speed=18.7x    frame=13436 fps=449 q=-0.0 size=N/A time=00:09:20.39 bitrate=N/A speed=18.7x    frame=13706 fps=450 q=-0.0 size=N/A time=00:09:31.65 bitrate=N/A speed=18.8x    frame=13927 fps=449 q=-0.0 size=N/A time=00:09:40.87 bitrate=N/A speed=18.7x    frame=14171 fps=450 q=-0.0 size=N/A time=00:09:51.04 bitrate=N/A speed=18.8x    frame=14412 fps=450 q=-0.0 size=N/A time=00:10:01.10 bitrate=N/A speed=18.8x    frame=14640 fps=450 q=-0.0 size=N/A time=00:10:10.61 bitrate=N/A speed=18.8x    frame=14850 fps=450 q=-0.0 size=N/A time=00:10:19.36 bitrate=N/A speed=18.7x    frame=15097 fps=450 q=-0.0 size=N/A time=00:10:29.67 bitrate=N/A speed=18.8x    frame=15332 fps=450 q=-0.0 size=N/A time=00:10:39.47 bitrate=N/A speed=18.8x    frame=15590 fps=451 q=-0.0 size=N/A time=00:10:50.23 bitrate=N/A speed=18.8x    frame=15861 fps=452 q=-0.0 size=N/A time=00:11:01.53 bitrate=N/A speed=18.8x    frame=16107 fps=452 q=-0.0 size=N/A time=00:11:11.79 bitrate=N/A speed=18.9x    frame=16345 fps=452 q=-0.0 size=N/A time=00:11:21.72 bitrate=N/A speed=18.9x    frame=16570 fps=452 q=-0.0 size=N/A time=00:11:31.10 bitrate=N/A speed=18.9x    frame=16829 fps=453 q=-0.0 size=N/A time=00:11:41.90 bitrate=N/A speed=18.9x    frame=17078 fps=453 q=-0.0 size=N/A time=00:11:52.29 bitrate=N/A speed=18.9x    frame=17325 fps=453 q=-0.0 size=N/A time=00:12:02.59 bitrate=N/A speed=18.9x    frame=17538 fps=453 q=-0.0 size=N/A time=00:12:11.48 bitrate=N/A speed=18.9x    frame=17757 fps=453 q=-0.0 size=N/A time=00:12:20.61 bitrate=N/A speed=18.9x    frame=18004 fps=453 q=-0.0 size=N/A time=00:12:30.91 bitrate=N/A speed=18.9x    frame=18245 fps=453 q=-0.0 size=N/A time=00:12:40.96 bitrate=N/A speed=18.9x    frame=18507 fps=454 q=-0.0 size=N/A time=00:12:51.89 bitrate=N/A speed=18.9x    frame=18752 fps=454 q=-0.0 size=N/A time=00:13:02.11 bitrate=N/A speed=18.9x    frame=19000 fps=455 q=-0.0 size=N/A time=00:13:12.45 bitrate=N/A speed=  19x    frame=19225 fps=454 q=-0.0 size=N/A time=00:13:21.84 bitrate=N/A speed=18.9x    frame=19487 fps=455 q=-0.0 size=N/A time=00:13:32.77 bitrate=N/A speed=  19x    frame=19734 fps=455 q=-0.0 size=N/A time=00:13:43.07 bitrate=N/A speed=  19x    frame=19977 fps=455 q=-0.0 size=N/A time=00:13:53.20 bitrate=N/A speed=  19x    frame=20190 fps=455 q=-0.0 size=N/A time=00:14:02.09 bitrate=N/A speed=  19x    frame=20433 fps=455 q=-0.0 size=N/A time=00:14:12.22 bitrate=N/A speed=  19x    frame=20702 fps=456 q=-0.0 size=N/A time=00:14:23.44 bitrate=N/A speed=  19x    frame=20981 fps=457 q=-0.0 size=N/A time=00:14:35.08 bitrate=N/A speed=19.1x    frame=21236 fps=457 q=-0.0 size=N/A time=00:14:45.71 bitrate=N/A speed=19.1x    frame=21482 fps=457 q=-0.0 size=N/A time=00:14:55.97 bitrate=N/A speed=19.1x    frame=21754 fps=458 q=-0.0 size=N/A time=00:15:07.32 bitrate=N/A speed=19.1x    frame=22022 fps=459 q=-0.0 size=N/A time=00:15:18.50 bitrate=N/A speed=19.1x    frame=22295 fps=460 q=-0.0 size=N/A time=00:15:29.88 bitrate=N/A speed=19.2x    frame=22582 fps=461 q=-0.0 size=N/A time=00:15:41.85 bitrate=N/A speed=19.2x    frame=22870 fps=462 q=-0.0 size=N/A time=00:15:53.86 bitrate=N/A speed=19.3x    frame=23076 fps=461 q=-0.0 size=N/A time=00:16:02.46 bitrate=N/A speed=19.2x    frame=23338 fps=461 q=-0.0 size=N/A time=00:16:13.38 bitrate=N/A speed=19.2x    frame=23547 fps=461 q=-0.0 size=N/A time=00:16:22.10 bitrate=N/A speed=19.2x    frame=23806 fps=461 q=-0.0 size=N/A time=00:16:32.90 bitrate=N/A speed=19.2x    frame=24052 fps=461 q=-0.0 size=N/A time=00:16:43.16 bitrate=N/A speed=19.2x    frame=24270 fps=461 q=-0.0 size=N/A time=00:16:52.26 bitrate=N/A speed=19.2x    frame=24447 fps=460 q=-0.0 size=N/A time=00:16:59.64 bitrate=N/A speed=19.2x    frame=24636 fps=459 q=-0.0 size=N/A time=00:17:07.52 bitrate=N/A speed=19.1x    frame=24879 fps=459 q=-0.0 size=N/A time=00:17:17.66 bitrate=N/A speed=19.1x    frame=25157 fps=460 q=-0.0 size=N/A time=00:17:29.25 bitrate=N/A speed=19.2x    frame=25382 fps=460 q=-0.0 size=N/A time=00:17:38.64 bitrate=N/A speed=19.2x    frame=25642 fps=460 q=-0.0 size=N/A time=00:17:49.48 bitrate=N/A speed=19.2x    frame=25913 fps=461 q=-0.0 size=N/A time=00:18:00.78 bitrate=N/A speed=19.2x    frame=26136 fps=460 q=-0.0 size=N/A time=00:18:10.08 bitrate=N/A speed=19.2x    frame=26378 fps=460 q=-0.0 size=N/A time=00:18:20.18 bitrate=N/A speed=19.2x    frame=26647 fps=461 q=-0.0 size=N/A time=00:18:31.40 bitrate=N/A speed=19.2x    frame=26891 fps=461 q=-0.0 size=N/A time=00:18:41.57 bitrate=N/A speed=19.2x    frame=27146 fps=461 q=-0.0 size=N/A time=00:18:52.21 bitrate=N/A speed=19.2x    frame=27381 fps=461 q=-0.0 size=N/A time=00:19:02.01 bitrate=N/A speed=19.2x    frame=27604 fps=461 q=-0.0 size=N/A time=00:19:11.31 bitrate=N/A speed=19.2x    frame=27854 fps=461 q=-0.0 size=N/A time=00:19:21.74 bitrate=N/A speed=19.2x    frame=28079 fps=461 q=-0.0 size=N/A time=00:19:31.12 bitrate=N/A speed=19.2x    frame=28328 fps=461 q=-0.0 size=N/A time=00:19:41.51 bitrate=N/A speed=19.2x    frame=28597 fps=462 q=-0.0 size=N/A time=00:19:52.73 bitrate=N/A speed=19.3x    frame=28831 fps=462 q=-0.0 size=N/A time=00:20:02.49 bitrate=N/A speed=19.3x    frame=29071 fps=462 q=-0.0 size=N/A time=00:20:12.50 bitrate=N/A speed=19.3x    frame=29327 fps=462 q=-0.0 size=N/A time=00:20:23.18 bitrate=N/A speed=19.3x    frame=29595 fps=462 q=-0.0 size=N/A time=00:20:34.35 bitrate=N/A speed=19.3x    frame=29848 fps=463 q=-0.0 size=N/A time=00:20:44.91 bitrate=N/A speed=19.3x    frame=30094 fps=463 q=-0.0 size=N/A time=00:20:55.17 bitrate=N/A speed=19.3x    frame=30312 fps=462 q=-0.0 size=N/A time=00:21:04.26 bitrate=N/A speed=19.3x    frame=30551 fps=463 q=-0.0 size=N/A time=00:21:14.23 bitrate=N/A speed=19.3x    frame=30783 fps=462 q=-0.0 size=N/A time=00:21:23.90 bitrate=N/A speed=19.3x    frame=31020 fps=462 q=-0.0 size=N/A time=00:21:33.79 bitrate=N/A speed=19.3x    frame=31273 fps=463 q=-0.0 size=N/A time=00:21:44.34 bitrate=N/A speed=19.3x    frame=31526 fps=463 q=-0.0 size=N/A time=00:21:54.89 bitrate=N/A speed=19.3x    frame=31761 fps=463 q=-0.0 size=N/A time=00:22:04.69 bitrate=N/A speed=19.3x    frame=32005 fps=463 q=-0.0 size=N/A time=00:22:14.87 bitrate=N/A speed=19.3x    frame=32237 fps=463 q=-0.0 size=N/A time=00:22:24.55 bitrate=N/A speed=19.3x    frame=32438 fps=462 q=-0.0 size=N/A time=00:22:32.93 bitrate=N/A speed=19.3x    frame=32643 fps=462 q=-0.0 size=N/A time=00:22:41.48 bitrate=N/A speed=19.3x    frame=32856 fps=461 q=-0.0 size=N/A time=00:22:50.36 bitrate=N/A speed=19.2x    frame=33067 fps=461 q=-0.0 size=N/A time=00:22:59.16 bitrate=N/A speed=19.2x    frame=33255 fps=460 q=-0.0 size=N/A time=00:23:07.01 bitrate=N/A speed=19.2x    frame=33439 fps=460 q=-0.0 size=N/A time=00:23:14.68 bitrate=N/A speed=19.2x    frame=33635 fps=459 q=-0.0 size=N/A time=00:23:22.85 bitrate=N/A speed=19.1x    frame=33814 fps=458 q=-0.0 size=N/A time=00:23:30.32 bitrate=N/A speed=19.1x    frame=33986 fps=457 q=-0.0 size=N/A time=00:23:37.49 bitrate=N/A speed=19.1x    frame=34140 fps=456 q=-0.0 size=N/A time=00:23:43.92 bitrate=N/A speed=  19x    frame=34288 fps=455 q=-0.0 size=N/A time=00:23:50.09 bitrate=N/A speed=  19x    frame=34437 fps=454 q=-0.0 size=N/A time=00:23:56.30 bitrate=N/A speed=18.9x    [Parsed_psnr_10 @ 000001d4b6734340] PSNR y:47.434632 u:49.615736 v:49.955369 average:48.085568 min:37.690439 max:inf
[out#0/null @ 000001d4b5fe06c0] video:14878KiB audio:270796KiB subtitle:0KiB other streams:0KiB global headers:0KiB muxing overhead: unknown
frame=34625 fps=454 q=-0.0 Lsize=N/A time=00:24:04.15 bitrate=N/A speed=  19x    
